<?xml version="1.0" encoding="iso-8859-1"?>
<!-- Generator: Adobe Illustrator 21.0.0, SVG Export Plug-In . SVG Version: 6.00 Build 0)  -->
<svg version="1.1" id="Capa_1" xmlns="http://www.w3.org/2000/svg" xmlns:xlink="http://www.w3.org/1999/xlink" x="0px" y="0px"
	 viewBox="0 0 480 480" style="enable-background:new 0 0 480 480;" xml:space="preserve">
<g>
	<g>
		<polygon points="11.312,56 64,56 64,3.312 		"/>
	</g>
</g>
<g>
	<g>
		<rect x="344" width="16" height="32"/>
	</g>
</g>
<g>
	<g>
		<rect x="424" y="288" width="48" height="192"/>
	</g>
</g>
<g>
	<g>
		<path d="M144,392c0,4.418,3.582,8,8,8h48c4.418,0,8-3.582,8-8H144z"/>
	</g>
</g>
<g>
	<g>
		<polygon points="448,252.808 432.64,272 463.36,272 		"/>
	</g>
</g>
<g>
	<g>
		<path d="M168,416v8c0,4.418,3.582,8,8,8s8-3.582,8-8v-8H168z"/>
	</g>
</g>
<g>
	<g>
		<path d="M296,32h32V0H80v64c0,4.418-3.582,8-8,8H8v408h320V163.312l-37.656-37.656c-1.5-1.5-2.344-3.534-2.344-5.656V40
			C288,35.582,291.582,32,296,32z M248,48h24v16h-24V48z M272,80v16h-64V80H272z M168,48h64v16h-64V48z M312,424h-64v-16h64V424z
			 M312,392h-64v-16h64V392z M312,360h-64v-16h64V360z M285.982,271.93c-12.106,27.737-34.245,49.876-61.982,61.982V392
			c0,13.255-10.745,24-24,24v8c0,13.255-10.745,24-24,24s-24-10.745-24-24v-8c-13.255,0-24-10.745-24-24v-58.088
			c-60.741-26.51-88.491-97.241-61.982-157.982S163.259,87.439,224,113.948C284.741,140.458,312.492,211.189,285.982,271.93z"/>
	</g>
</g>
<g>
	<g>
		<polygon points="344,179.312 344,480 360,480 360,195.312 		"/>
	</g>
</g>
<g>
	<g>
		<path d="M276.148,195.924C263.576,151.016,222.634,119.977,176,120c-57.407-0.028-103.967,46.486-103.995,103.892
			c-0.023,46.634,31.016,87.576,75.923,100.148l-11.848-82.904l15.84-2.272l12.632,88.472c7.606,0.885,15.29,0.885,22.896,0
			l12.632-88.472l15.84,2.272l-11.848,82.904C259.354,308.565,291.623,251.205,276.148,195.924z M236.424,231.2L208,216.944
			L179.576,231.2c-2.251,1.125-4.901,1.125-7.152,0L144,216.944L115.576,231.2l-7.152-14.32l32-16c2.251-1.125,4.901-1.125,7.152,0
			L176,215.056l28.424-14.216c2.251-1.125,4.901-1.125,7.152,0l32,16L236.424,231.2z"/>
	</g>
</g>
<g>
	<g>
		<path d="M144,339.536V352h64v-12.464C187.082,345.488,164.918,345.488,144,339.536z"/>
	</g>
</g>
<g>
	<g>
		<rect x="144" y="368" width="64" height="8"/>
	</g>
</g>
<g>
	<g>
		<path d="M463.032,138.344L372.688,48H304v68.688l90.344,90.344c3.124,3.123,8.188,3.123,11.312,0l57.376-57.376
			C466.155,146.532,466.155,141.468,463.032,138.344z M344,96c-4.418,0-8-3.582-8-8s3.582-8,8-8s8,3.582,8,8S348.418,96,344,96z
			 M397.656,181.656l-11.312-11.312l40-40l11.312,11.312L397.656,181.656z"/>
	</g>
</g>
<g>
</g>
<g>
</g>
<g>
</g>
<g>
</g>
<g>
</g>
<g>
</g>
<g>
</g>
<g>
</g>
<g>
</g>
<g>
</g>
<g>
</g>
<g>
</g>
<g>
</g>
<g>
</g>
<g>
</g>
</svg>
