<svg height="448pt" viewBox="0 -1 448 448" width="448pt" xmlns="http://www.w3.org/2000/svg"><path d="m184.902344 295.761719-48.980469-31.714844-48.824219 30.511719 48.980469 30.617187 17.113281-10.3125zm0 0"/><path d="m80 354.121094 48 30v-45.121094l-48-30zm0 0"/><path d="m232.449219 190.648438c.726562.042968 1.445312.183593 2.136719.421874.246093.089844.484374.152344.71875.257813.875.386719 1.671874.929687 2.351562 1.601563l48 48c.671875.675781 1.210938 1.46875 1.601562 2.34375.109376.246093.175782.496093.261719.75.230469.664062.367188 1.355468.410157 2.054687 0 .179687.101562.328125.101562.507813v55.871093l16 9.824219v-140.402344l-128.03125-78.589844v97.269532h56c.160156 0 .296875.082031.449219.089844zm-24.449219-16.089844h-16v-40h16zm0 0"/><path d="m32 382.558594v-224h-8c-13.253906 0-24 10.746094-24 24v208c6.917969-5.207032 15.34375-8.015625 24-8zm0 0"/><path d="m312.078125 158.0625 128.632813-76.117188-128.78125-81.945312-128.640626 78.976562 124.710938 76.597657zm-67.839844-80.71875-8.476562-13.601562 38.398437-24 8.480469 13.601562zm42.722657-45.601562 12.800781-8 8.476562 13.601562-12.796875 8zm0 0"/><path d="m260.6875 238.558594-20.6875-20.6875v20.6875zm0 0"/><path d="m400 390.558594h-16v-16h-16v16h-16v-16h-16v16h-16v-16h-16v16h-16v-16h-16v16h-16v-16h-16v32h176v-32h-16zm0 0"/><path d="m144 339.078125v45.320313l48-28.910157v-45.320312l-6.03125 3.640625zm0 0"/><path d="m320 171.96875v140.558594l128-75.734375v-140.570313zm0 0"/><path d="m224 414.558594v-48c0-4.417969 3.582031-8 8-8h40v-104h-40c-4.417969 0-8-3.582032-8-8v-40h-176v184c0 4.417968-3.582031 8-8 8h-16c-13.253906 0-24 10.746094-24 24 0 13.257812 10.746094 24 24 24h248v-24h-40c-4.417969 0-8-3.582032-8-8zm0-120h32v16h-32zm0 32h32v16h-32zm-160-96h16v16h-16zm16 192h-16v-16h16zm128 0h-16v-16h16zm0-62.542969c0 2.804687-1.46875 5.402344-3.871094 6.847656l-64 38.542969-.121094.058594-.128906.09375c-.386718.191406-.792968.351562-1.207031.480468-.207031.074219-.40625.183594-.617187.242188-1.359376.382812-2.796876.382812-4.160157 0-.199219-.050781-.375-.160156-.574219-.226562-.433593-.132813-.851562-.304688-1.257812-.511719-.0625 0-.109375-.085938-.175781-.128907l-.125-.054687-64-40c-2.34375-1.464844-3.765625-4.035156-3.761719-6.800781v-64c.003906-.695313.097656-1.390625.28125-2.0625.0625-.238282.183594-.449219.261719-.671875.144531-.421875.320312-.828125.519531-1.222657.160156-.246093.332031-.484374.523438-.707031.210937-.324219.453124-.632812.71875-.917969.238281-.226562.492187-.441406.757812-.632812.242188-.183594.441406-.40625.699219-.566406l64-40c2.632812-1.644532 5.976562-1.617188 8.582031.070312l64 41.457032c.214844.15625.417969.328124.609375.511718.28125.207032.546875.433594.800781.679688.230469.265625.453125.546875.652344.839844.199219.257812.382812.523437.554688.800781.175781.34375.328124.703125.445312 1.070312.105469.273438.242188.527344.320312.800781.09375.433594.152344.875.175782 1.320313 0 .230469.089844.449219.089844.679687zm0-113.457031h-16v-16h16zm0 0"/></svg>