<svg height="464pt" viewBox="0 0 464 464" width="464pt" xmlns="http://www.w3.org/2000/svg"><path d="m416 32h-368v200h368zm-200 104c0 40-32 72-72 72s-72-32-72-72 32-72 72-72h8v64h64zm8-24h-56v-56h8c26.398438 0 48 21.601562 48 48zm168 96h-152v-16h152zm0-40h-152v-16h152zm0-40h-152v-16h152zm0-40h-152v-16h152zm0 0"/><path d="m136 80.800781c-30.398438 4.800781-52 32.800781-47.199219 63.199219s32.800781 52 63.199219 47.199219c24.800781-3.199219 44-23.199219 47.199219-47.199219h-63.199219zm0 0"/><path d="m184 72.800781v23.199219h23.199219c-3.199219-11.199219-12-20-23.199219-23.199219zm0 0"/><path d="m440 8c0-4.800781-3.199219-8-8-8h-400c-4.800781 0-8 3.199219-8 8v8h416zm0 0"/><path d="m96 360h-48c-13.601562 0-24-10.398438-24-24v-48c0-4.800781-3.199219-8-8-8s-8 3.199219-8 8v64c0 13.601562 10.398438 24 24 24v56h-8c-13.601562 0-24 10.398438-24 24v8h16v-8c0-4.800781 3.199219-8 8-8h8v16h16v-16h8c4.800781 0 8 3.199219 8 8v8h16v-8c0-13.601562-10.398438-24-24-24h-8v-56h48c4.800781 0 8-3.199219 8-8s-3.199219-8-8-8zm0 0"/><path d="m384 288c0-4.800781-3.199219-8-8-8h-288c-4.800781 0-8 3.199219-8 8v16h304zm0 0"/><path d="m224 320h16v96h-16zm0 0"/><path d="m272 432h-80c-4.800781 0-8 3.199219-8 8v8h96v-8c0-4.800781-3.199219-8-8-8zm0 0"/><path d="m440 432h-8v-56c13.601562 0 24-10.398438 24-24v-64c0-4.800781-3.199219-8-8-8s-8 3.199219-8 8v48c0 13.601562-10.398438 24-24 24h-48c-4.800781 0-8 3.199219-8 8s3.199219 8 8 8h48v56h-8c-13.601562 0-24 10.398438-24 24v8h16v-8c0-4.800781 3.199219-8 8-8h8v16h16v-16h8c4.800781 0 8 3.199219 8 8v8h16v-8c0-13.601562-10.398438-24-24-24zm0 0"/></svg>