<svg height="512" viewBox="0 0 60 60" width="512" xmlns="http://www.w3.org/2000/svg"><g id="094---Law" transform="translate(-1 -1)"><path id="Shape" d="m14 39.48 1.42-1.42c1.1698135-1.1712702 1.1698135-3.0687298 0-4.24.7800749.7754472 2.0399251.7754472 2.82 0l2.12-2.12 1.42 1.41c.3751365.3755541.8841815.5865733 1.415.5865733s1.0398635-.2110192 1.415-.5865733l8.48-8.48c.3755541-.3751365.5865733-.8841815.5865733-1.415s-.2110192-1.0398635-.5865733-1.415l-1.39-1.42 2.12-2.12c.7754472-.7800749.7754472-2.0399251 0-2.82l-5.66-5.66-12.72 12.73c-.1887188.1871865-.444197.2915368-.71.29-.4099219.0107203-.7848448-.2299033-.9458436-.6070375-.1609988-.3771343-.0754406-.8143375.2158436-1.1029625 13.74-13.72 12.65-12.73 12.75-12.73l7.07 7.08c1.1712702 1.1698135 3.0687298 1.1698135 4.24 0l1.42-1.44c.3877236-.3900375.3877236-1.0199625 0-1.41l-11.32-11.3c-.3900375-.38772359-1.0199625-.38772359-1.41 0l-1.42 1.42c-1.1698135 1.17127019-1.1698135 3.06872981 0 4.24-.7800749-.77544719-2.0399251-.77544719-2.82 0l-15.51 15.56c-.77544719.7800749-.77544719 2.0399251 0 2.82-1.17127019-1.1698135-3.06872981-1.1698135-4.24 0l-1.47 1.42c-.38772359.3900375-.38772359 1.0199625 0 1.41l11.32 11.32c.3875966.3746537 1.0024034.3746537 1.39 0zm-4.22-11.32-1.42-1.41 2.83-2.83c.1877666-.1893127.4433625-.2957983.71-.2957983s.5222334.1064856.71.2957983c.3877236.3900375.3877236 1.0199625 0 1.41z"/><path id="Rectangle-path" d="m29.964 29.96h4v4h-4z" transform="matrix(.707 -.707 .707 .707 -13.237 31.963)"/><path id="Rectangle-path" d="m41.332 36.841h8v17h-8z" transform="matrix(.707 -.707 .707 .707 -18.783 45.323)"/><path id="Rectangle-path" d="m49.46 52.46h8v2h-8z" transform="matrix(.707 -.707 .707 .707 -22.144 53.46)"/><path id="Shape" d="m58.41 52.76-5.65 5.65 1.41 1.42c1.5629658 1.5629658 4.0970341 1.5629658 5.66 0 1.5629658-1.5629659 1.5629658-4.0970342 0-5.66z"/><path id="Shape" d="m40.74 35.08-2.12-2.08c-.3751365-.3755541-.8841815-.5865733-1.415-.5865733s-1.0398635.2110192-1.415.5865733l-2.79 2.79c-.3755541.3751365-.5865733.8841815-.5865733 1.415s.2110192 1.0398635.5865733 1.415l2.12 2.12z"/><path id="Shape" d="m26 56h-22c-1.1045695 0-2 .8954305-2 2v3h26v-3c0-1.1045695-.8954305-2-2-2z"/><path id="Shape" d="m22 49h-14c-1.65685425 0-3 1.3431458-3 3v2h20v-2c0-1.6568542-1.3431458-3-3-3z"/><path id="Shape" d="m26 45v-4c0-.5522847-.4477153-1-1-1s-1 .4477153-1 1v4c0 .5522847.4477153 1 1 1s1-.4477153 1-1z"/><path id="Shape" d="m33 48h-4c-.5522847 0-1 .4477153-1 1s.4477153 1 1 1h4c.5522847 0 1-.4477153 1-1s-.4477153-1-1-1z"/><path id="Shape" d="m30.29 42.29-3 3c-.3921221.3921222-.3921221 1.0278778 0 1.42.3921222.3921221 1.0278778.3921221 1.42 0l3-3c.3921221-.3921222.3921221-1.0278778 0-1.42-.3921222-.3921221-1.0278778-.3921221-1.42 0z"/></g></svg>