<svg xmlns="http://www.w3.org/2000/svg" xmlns:xlink="http://www.w3.org/1999/xlink" width="360" height="204" viewBox="0 0 360 204"><defs><linearGradient id="linear-gradient" x1="338" x2="354" y1="92" y2="92" gradientTransform="translate(-238)" gradientUnits="userSpaceOnUse"><stop offset="0" stop-color="#1967d2"/><stop offset="1" stop-color="#1967d2" stop-opacity="0"/></linearGradient><clipPath id="clip-path"><rect width="50" height="51" x="97" y="107" fill="none"/></clipPath><linearGradient id="linear-gradient-2" x1="126" x2="156" y1="147.5" y2="147.5" gradientUnits="userSpaceOnUse"><stop offset="0" stop-color="#188038"/><stop offset="1" stop-color="#188038" stop-opacity="0"/></linearGradient><linearGradient id="linear-gradient-3" x1="254" x2="270" y1="165" y2="165" gradientUnits="userSpaceOnUse"><stop offset="0" stop-color="#9aa0a6" stop-opacity="0"/><stop offset=".15" stop-color="#9aa0a6" stop-opacity=".025"/><stop offset=".306" stop-color="#9aa0a6" stop-opacity=".1"/><stop offset=".464" stop-color="#9aa0a6" stop-opacity=".225"/><stop offset=".624" stop-color="#9aa0a6" stop-opacity=".4"/><stop offset=".786" stop-color="#9aa0a6" stop-opacity=".626"/><stop offset=".946" stop-color="#9aa0a6" stop-opacity=".898"/><stop offset="1" stop-color="#9aa0a6"/></linearGradient><linearGradient id="linear-gradient-4" x1="14" x2="44" xlink:href="#linear-gradient-3"/><linearGradient id="linear-gradient-5" x1="1782" x2="1782" y1="168" y2="80" gradientTransform="matrix(-1, 0, 0, 1, 1858, 0)" xlink:href="#linear-gradient"/><linearGradient id="linear-gradient-6" x1="149" x2="169" xlink:href="#linear-gradient-3"/><clipPath id="clip-path-2"><rect width="56" height="42" x="268" y="126" fill="none" rx="2" ry="2"/></clipPath><linearGradient id="linear-gradient-7" x1="296" x2="296" y1="147" y2="168" gradientUnits="userSpaceOnUse"><stop offset="0" stop-color="#9aa0a6"/><stop offset="1" stop-color="#9aa0a6" stop-opacity="0"/></linearGradient><linearGradient id="linear-gradient-8" x1="296" x2="296" y1="149.337" y2="112" gradientUnits="userSpaceOnUse"><stop offset="0" stop-color="#c5221f"/><stop offset="1" stop-color="#c5221f" stop-opacity="0"/></linearGradient></defs><title>site_sec_A_01</title><g style="isolation:isolate"><g id="Content"><g><path fill="#4285f4" d="M108,80h0a8,8,0,0,1,8,8v16a0,0,0,0,1,0,0H100a0,0,0,0,1,0,0V88a8,8,0,0,1,8-8Z"/><path fill="url(#linear-gradient)" d="M116,104H100V88a8,8,0,0,1,8-8h0a8,8,0,0,1,8,8Z" opacity=".5" style="mix-blend-mode:multiply"/><g><rect width="56" height="64" x="103.503" y="97.713" fill="#dadce0" transform="translate(39.168 -30.264) rotate(15.4)"/><rect width="50" height="51" x="107.433" y="100.839" fill="#fbbc04" transform="translate(38.305 -30.632) rotate(15.4)"/></g><g><rect width="56" height="64" x="94" y="104" fill="#e8eaed"/><rect width="50" height="51" x="97" y="107" fill="#fff"/><g clip-path="url(#clip-path)"><g><polygon fill="#34a853" points="86 158 112 132 138 158 100 158 86 158"/><polygon fill="#34a853" points="138 158 156 158 135 137 126 146 138 158"/><polygon fill="url(#linear-gradient-2)" points="138 158 156 158 135 137 126 146 138 158" opacity=".5" style="mix-blend-mode:multiply"/></g><circle cx="112" cy="119" r="5" fill="none" stroke="#fbbc04" stroke-miterlimit="10" stroke-width="2"/></g></g><rect width="16" height="6" x="254" y="162" fill="url(#linear-gradient-3)" style="mix-blend-mode:multiply"/><rect width="30" height="6" x="14" y="162" fill="url(#linear-gradient-4)" style="mix-blend-mode:multiply"/><rect width="360" height="204" fill="none"/><path fill="#4285f4" d="M92,168a8,8,0,0,0,8-8V88a8,8,0,0,1,8-8H60a8,8,0,0,0-8,8v72a8,8,0,0,1-8,8Z"/><path fill="url(#linear-gradient-5)" d="M92,168a8,8,0,0,0,8-8V88a8,8,0,0,1,8-8H60a8,8,0,0,0-8,8v72a8,8,0,0,1-8,8Z" opacity=".5" style="mix-blend-mode:multiply"/><path fill="#4285f4" d="M92,168a8,8,0,0,1-8-8H36a8,8,0,0,0,8,8Z"/><g><rect width="32" height="2" x="60" y="96" fill="#fff" rx="1" ry="1"/><rect width="32" height="2" x="60" y="104" fill="#fff" rx="1" ry="1"/><rect width="32" height="2" x="60" y="112" fill="#fff" rx="1" ry="1"/><rect width="32" height="2" x="60" y="120" fill="#fff" rx="1" ry="1"/><rect width="32" height="2" x="60" y="128" fill="#fff" rx="1" ry="1"/><rect width="32" height="2" x="60" y="136" fill="#fff" rx="1" ry="1"/><rect width="16" height="2" x="60" y="144" fill="#fff" rx="1" ry="1"/></g><rect width="20" height="6" x="149" y="162" fill="url(#linear-gradient-6)" style="mix-blend-mode:multiply"/><g><rect width="88" height="128" x="167" y="40" fill="#e8eaed" rx="2" ry="2"/><g><g><rect width="68" height="18" x="177" y="130" fill="#fff" rx="2" ry="2"/><g><line x1="219" x2="219" y1="135" y2="143" fill="none" stroke="#bdc1c6" stroke-linecap="round" stroke-linejoin="round"/><line x1="216.172" x2="221.828" y1="136.172" y2="141.828" fill="none" stroke="#bdc1c6" stroke-linecap="round" stroke-linejoin="round"/><line x1="215" x2="223" y1="139" y2="139" fill="none" stroke="#bdc1c6" stroke-linecap="round" stroke-linejoin="round"/><line x1="216.172" x2="221.828" y1="141.828" y2="136.172" fill="none" stroke="#bdc1c6" stroke-linecap="round" stroke-linejoin="round"/></g><g><line x1="203" x2="203" y1="135" y2="143" fill="none" stroke="#bdc1c6" stroke-linecap="round" stroke-linejoin="round"/><line x1="200.172" x2="205.828" y1="136.172" y2="141.828" fill="none" stroke="#bdc1c6" stroke-linecap="round" stroke-linejoin="round"/><line x1="199" x2="207" y1="139" y2="139" fill="none" stroke="#bdc1c6" stroke-linecap="round" stroke-linejoin="round"/><line x1="200.172" x2="205.828" y1="141.828" y2="136.172" fill="none" stroke="#bdc1c6" stroke-linecap="round" stroke-linejoin="round"/></g><g><line x1="187" x2="187" y1="135" y2="143" fill="none" stroke="#bdc1c6" stroke-linecap="round" stroke-linejoin="round"/><line x1="184.172" x2="189.828" y1="136.172" y2="141.828" fill="none" stroke="#bdc1c6" stroke-linecap="round" stroke-linejoin="round"/><line x1="183" x2="191" y1="139" y2="139" fill="none" stroke="#bdc1c6" stroke-linecap="round" stroke-linejoin="round"/><line x1="184.172" x2="189.828" y1="141.828" y2="136.172" fill="none" stroke="#bdc1c6" stroke-linecap="round" stroke-linejoin="round"/></g><g><line x1="235" x2="235" y1="135" y2="143" fill="none" stroke="#bdc1c6" stroke-linecap="round" stroke-linejoin="round"/><line x1="232.172" x2="237.828" y1="136.172" y2="141.828" fill="none" stroke="#bdc1c6" stroke-linecap="round" stroke-linejoin="round"/><line x1="231" x2="239" y1="139" y2="139" fill="none" stroke="#bdc1c6" stroke-linecap="round" stroke-linejoin="round"/><line x1="232.172" x2="237.828" y1="141.828" y2="136.172" fill="none" stroke="#bdc1c6" stroke-linecap="round" stroke-linejoin="round"/></g></g><rect width="40" height="3" x="190" y="109" fill="#4285f4" rx="1.5" ry="1.5"/><rect width="24" height="2" x="198" y="120" fill="#bdc1c6" rx="1" ry="1"/><g id="PRIVACY_512dp" data-name="PRIVACY 512dp"><path fill="#4285f4" d="M194.5,93.2c0-4.164,7.205-7.552,15.5-7.7,8.295.151,15.5,3.539,15.5,7.7v.435a20,20,0,1,0-31,0Z"/><path fill="#fff" d="M225.5,93.2c0-4.164-7.205-7.552-15.5-7.7-8.295.151-15.5,3.539-15.5,7.7v.435a20,20,0,0,0,31,0Z"/><circle cx="210" cy="73.833" r="8" fill="#fff"/></g></g></g><g><g clip-path="url(#clip-path-2)"><path fill="#bdc1c6" d="M268,126l23.585,21.62a6.533,6.533,0,0,0,8.829,0L324,126Z"/><path fill="#dadce0" d="M300.415,147.62a6.533,6.533,0,0,1-8.829,0L268,126v42h56V126Z"/><path fill="#dadce0" d="M300.415,147.62a6.534,6.534,0,0,1-8.83,0l-.676-.62L268,168h56l-22.909-21Z"/><path fill="url(#linear-gradient-7)" d="M300.415,147.62a6.534,6.534,0,0,1-8.83,0l-.676-.62L268,168h56l-22.909-21Z" opacity=".3" style="mix-blend-mode:multiply"/></g><path fill="#ea4335" d="M315,112H277a2,2,0,0,0-2,2v18.417l16.585,15.2a6.534,6.534,0,0,0,8.83,0L317,132.417V114A2,2,0,0,0,315,112Z"/><path fill="url(#linear-gradient-8)" d="M315,112H277a2,2,0,0,0-2,2v18.417l16.585,15.2a6.534,6.534,0,0,0,8.83,0L317,132.417V114A2,2,0,0,0,315,112Z" opacity=".5" style="mix-blend-mode:color-burn"/><g><path fill="none" stroke="#fff" stroke-linejoin="round" stroke-width="1.5" d="M296.261,134h0A5.261,5.261,0,0,1,291,128.739h0a5.261,5.261,0,0,1,6.537-5.1L299,124v7.261A2.739,2.739,0,0,1,296.261,134Z"/><path fill="none" stroke="#fff" stroke-linejoin="round" stroke-width="1.5" d="M299,130a4,4,0,0,0,8,0v-1"/><path fill="none" stroke="#fff" stroke-linecap="round" stroke-linejoin="round" stroke-width="1.5" d="M296,140a11,11,0,1,1,11-11"/></g></g></g></g></g></svg>