<svg xmlns="http://www.w3.org/2000/svg" xmlns:xlink="http://www.w3.org/1999/xlink" width="360" height="204" viewBox="0 0 360 204"><defs><linearGradient id="linear-gradient" x1="-56.701" x2="3.299" y1="323.063" y2="323.063" gradientTransform="matrix(0, 1, -1, 0, 614.584, 137.96)" gradientUnits="userSpaceOnUse"><stop offset="0" stop-color="#202124" stop-opacity="0"/><stop offset=".023" stop-color="#202124" stop-opacity=".079"/><stop offset=".257" stop-color="#202124" stop-opacity=".751"/><stop offset=".4" stop-color="#202124"/><stop offset=".615" stop-color="#202124" stop-opacity=".751"/><stop offset=".965" stop-color="#202124" stop-opacity=".079"/><stop offset="1" stop-color="#202124" stop-opacity="0"/></linearGradient><linearGradient id="linear-gradient-2" x1="273.911" x2="297.393" y1="117.637" y2="102.387" gradientTransform="translate(333.87 -192.271) rotate(78)" gradientUnits="userSpaceOnUse"><stop offset="0" stop-color="#9aa0a6"/><stop offset="1" stop-color="#9aa0a6" stop-opacity="0"/></linearGradient><linearGradient id="linear-gradient-3" x1="12" x2="34" y1="165" y2="165" gradientUnits="userSpaceOnUse"><stop offset="0" stop-color="#9aa0a6" stop-opacity="0"/><stop offset=".15" stop-color="#9aa0a6" stop-opacity=".025"/><stop offset=".306" stop-color="#9aa0a6" stop-opacity=".1"/><stop offset=".464" stop-color="#9aa0a6" stop-opacity=".225"/><stop offset=".624" stop-color="#9aa0a6" stop-opacity=".4"/><stop offset=".786" stop-color="#9aa0a6" stop-opacity=".626"/><stop offset=".946" stop-color="#9aa0a6" stop-opacity=".898"/><stop offset="1" stop-color="#9aa0a6"/></linearGradient><linearGradient id="linear-gradient-4" x1="46" x2="118" xlink:href="#linear-gradient-3"/><linearGradient id="linear-gradient-5" x1="74.4" x2="74.4" y1="128.6" y2="88.6" gradientUnits="userSpaceOnUse"><stop offset="0" stop-color="#1967d2"/><stop offset="1" stop-color="#1967d2" stop-opacity="0"/></linearGradient><linearGradient id="linear-gradient-6" x1="60.258" x2="76.4" y1="122.742" y2="106.6" gradientUnits="userSpaceOnUse"><stop offset="0" stop-color="#174ea6"/><stop offset=".054" stop-color="#174ea6" stop-opacity=".898"/><stop offset=".214" stop-color="#174ea6" stop-opacity=".626"/><stop offset=".375" stop-color="#174ea6" stop-opacity=".4"/><stop offset=".535" stop-color="#174ea6" stop-opacity=".225"/><stop offset=".693" stop-color="#174ea6" stop-opacity=".1"/><stop offset=".849" stop-color="#174ea6" stop-opacity=".025"/><stop offset=".999" stop-color="#174ea6" stop-opacity="0"/></linearGradient><linearGradient id="linear-gradient-7" x1="51.384" x2="51.384" y1="168" y2="128" gradientUnits="userSpaceOnUse"><stop offset="0" stop-color="#c5221f"/><stop offset="1" stop-color="#c5221f" stop-opacity="0"/></linearGradient><linearGradient id="linear-gradient-8" x1="51.384" x2="51.384" y1="168" y2="128" gradientUnits="userSpaceOnUse"><stop offset="0" stop-color="#bdc1c6"/><stop offset=".136" stop-color="#bdc1c6" stop-opacity=".753"/><stop offset=".282" stop-color="#bdc1c6" stop-opacity=".525"/><stop offset=".43" stop-color="#bdc1c6" stop-opacity=".336"/><stop offset=".576" stop-color="#bdc1c6" stop-opacity=".189"/><stop offset=".721" stop-color="#bdc1c6" stop-opacity=".084"/><stop offset=".863" stop-color="#bdc1c6" stop-opacity=".021"/><stop offset="1" stop-color="#bdc1c6" stop-opacity="0"/></linearGradient><linearGradient id="linear-gradient-9" x1="1557.159" x2="1597.159" y1="-5.063" y2="-5.063" gradientTransform="translate(-1482.472 149.75)" gradientUnits="userSpaceOnUse"><stop offset="0" stop-color="#188038"/><stop offset=".104" stop-color="#188038" stop-opacity=".808"/><stop offset=".287" stop-color="#188038" stop-opacity=".519"/><stop offset=".469" stop-color="#188038" stop-opacity=".292"/><stop offset=".65" stop-color="#188038" stop-opacity=".13"/><stop offset=".828" stop-color="#188038" stop-opacity=".033"/><stop offset="1" stop-color="#188038" stop-opacity="0"/></linearGradient><linearGradient id="linear-gradient-10" x1="121.087" x2="140.886" y1="66.08" y2="46.28" gradientTransform="translate(-40.543 92.749)" xlink:href="#linear-gradient-8"/></defs><title>site_sec_A_02</title><g style="isolation:isolate"><g id="Content"><g><g><g><rect width="144" height="96" x="118" y="72" fill="#e8eaed"/><path fill="#dadce0" d="M120,62H260a2,2,0,0,1,2,2v8a0,0,0,0,1,0,0H118a0,0,0,0,1,0,0V64A2,2,0,0,1,120,62Z"/><circle cx="126" cy="67" r="2" fill="#9aa0a6"/><g><path fill="#fff" d="M136,84H237a0,0,0,0,1,0,0V96a0,0,0,0,1,0,0H136a6,6,0,0,1-6-6v0a6,6,0,0,1,6-6Z"/><path fill="#4285f4" d="M237,84h7a6,6,0,0,1,6,6v0a6,6,0,0,1-6,6h-7a0,0,0,0,1,0,0V84A0,0,0,0,1,237,84Z"/><rect width="44" height="2" x="136" y="89" fill="#bdc1c6" rx="1" ry="1"/><g><path fill="#fff" d="M240.916,89.23a1.544,1.544,0,1,1,1.544,1.544A1.542,1.542,0,0,1,240.916,89.23Zm5.058,3-1.71-1.71a2.191,2.191,0,0,0,.369-1.79,2.23,2.23,0,1,0-2.671,2.671,2.191,2.191,0,0,0,1.79-.369l1.71,1.71a.361.361,0,0,0,.511,0h0A.361.361,0,0,0,245.974,92.233Z"/><rect width="8" height="8" x="239.23" y="86" fill="none"/></g></g><g><rect width="64" height="3" x="130" y="106" fill="#4285f4" rx="1.5" ry="1.5"/><rect width="40" height="2" x="130" y="115" fill="#34a853" rx="1" ry="1"/><rect width="106" height="2" x="130" y="123" fill="#bdc1c6" rx="1" ry="1"/><rect width="106" height="2" x="130" y="131" fill="#bdc1c6" rx="1" ry="1"/><rect width="106" height="2" x="130" y="139" fill="#bdc1c6" rx="1" ry="1"/><rect width="48" height="2" x="130" y="147" fill="#bdc1c6" rx="1" ry="1"/></g></g><g><g><rect width="16" height="60" x="283.521" y="81.259" fill="#80868b" rx="8" ry="8" transform="translate(122.082 373.278) rotate(-78)"/><rect width="16" height="60" x="283.521" y="81.259" fill="url(#linear-gradient)" opacity=".5" rx="8" ry="8" transform="translate(122.082 373.278) rotate(-78)" style="mix-blend-mode:multiply"/></g><circle cx="287.608" cy="110.428" r="14" fill="#e8eaed" transform="translate(119.796 368.792) rotate(-78)"/><circle cx="285.652" cy="110.012" r="14" fill="#bdc1c6" transform="translate(118.654 366.549) rotate(-78)"/><circle cx="285.652" cy="110.012" r="14" fill="url(#linear-gradient-2)" opacity=".3" transform="translate(118.654 366.549) rotate(-78)" style="mix-blend-mode:multiply"/><g><polygon fill="#fff" points="288.147 98.274 288.147 98.274 288.147 98.274 288.147 98.274"/><path fill="#fff" d="M273.914,107.517h0a12,12,0,1,0,23.475,4.99Z"/><path fill="#9aa0a6" d="M297.39,112.507a12,12,0,0,0-9.243-14.232h0a12,12,0,0,0-14.233,9.243l23.475,4.99Z"/></g><circle cx="289.565" cy="110.844" r="3" fill="#fbbc04" transform="translate(120.939 371.035) rotate(-78)"/></g><rect width="22" height="6" x="12" y="162" fill="url(#linear-gradient-3)" style="mix-blend-mode:multiply"/><rect width="72" height="6" x="46" y="162" fill="url(#linear-gradient-4)" style="mix-blend-mode:multiply"/><g><path fill="#5f6368" d="M246,130v32a6,6,0,0,0,6,6h2V124h-2A6,6,0,0,0,246,130Z"/><path fill="#5f6368" d="M320,168a6,6,0,0,0,6-6V130a6,6,0,0,0-6-6h-2v44Z"/><rect width="64" height="44" x="254" y="124" fill="#fbbc04"/><rect width="1" height="14" x="250" y="139" fill="#3c4043" rx=".5" ry=".5"/><path fill="none" stroke="#fff" stroke-linecap="round" stroke-miterlimit="10" d="M292,156.394A12,12,0,1,1,298,146"/></g><g><circle cx="74.4" cy="108.6" r="20" fill="#4285f4"/><circle cx="74.4" cy="108.6" r="20" fill="url(#linear-gradient-5)" opacity=".5" style="mix-blend-mode:multiply"/><path fill="url(#linear-gradient-6)" d="M78.4,124.6A19.973,19.973,0,0,1,62.416,92.616a19.982,19.982,0,1,0,27.969,27.969A19.884,19.884,0,0,1,78.4,124.6Z" opacity=".3" style="mix-blend-mode:multiply"/><g><path fill="none" d="M62.4,96.6h24v24h-24Z"/><path fill="none" stroke="#fff" stroke-miterlimit="10" d="M81.54,109.536a7.832,7.832,0,0,0,.06-.936,5.919,5.919,0,0,0-.072-.936l2.028-1.584a.5.5,0,0,0,.12-.612l-1.92-3.324a.488.488,0,0,0-.588-.216l-2.388.96a7.03,7.03,0,0,0-1.62-.936l-.36-2.544A.479.479,0,0,0,76.32,99H72.48a.467.467,0,0,0-.468.408l-.36,2.544a7.219,7.219,0,0,0-1.62.936l-2.388-.96a.475.475,0,0,0-.588.216l-1.92,3.324a.465.465,0,0,0,.12.612l2.028,1.584a5.655,5.655,0,0,0-.012,1.872l-2.028,1.584a.5.5,0,0,0-.12.612l1.92,3.324a.488.488,0,0,0,.588.216l2.388-.96a7.031,7.031,0,0,0,1.62.936l.36,2.544a.488.488,0,0,0,.48.408h3.84a.459.459,0,0,0,.468-.408l.36-2.544a7.219,7.219,0,0,0,1.62-.936l2.388.96a.475.475,0,0,0,.588-.216l1.92-3.324a.465.465,0,0,0-.12-.612Z"/><circle cx="74.4" cy="108.6" r="3" fill="none" stroke="#fff" stroke-miterlimit="10"/></g></g><g><rect width="40" height="40" x="31.384" y="128" fill="#ea4335" rx="2" ry="2"/><rect width="40" height="40" x="31.384" y="128" fill="url(#linear-gradient-7)" opacity=".5" rx="2" ry="2" style="mix-blend-mode:color-burn"/><path fill="url(#linear-gradient-8)" d="M37.384,164a2,2,0,0,1-2-2V128h-2a2,2,0,0,0-2,2v36a2,2,0,0,0,2,2h36a2,2,0,0,0,2-2v-2Z" opacity=".3" style="mix-blend-mode:multiply"/></g><g><g><rect width="40" height="40" x="74.686" y="124.686" fill="#34a853" rx="12" ry="12" transform="translate(-74.576 109.331) rotate(-45)"/><rect width="40" height="40" x="74.686" y="124.686" fill="url(#linear-gradient-9)" opacity=".5" rx="12" ry="12" transform="translate(-74.576 109.331) rotate(-45)" style="mix-blend-mode:multiply"/><g><g><path fill="none" stroke="#fff" stroke-linecap="round" stroke-miterlimit="10" d="M94.686,154.686a10,10,0,0,1-6.1-17.922"/><polygon fill="none" stroke="#fff" stroke-linecap="round" stroke-linejoin="round" points="94.686 151.686 94.686 157.686 98.686 154.686 94.686 151.686"/></g><g><polygon fill="none" stroke="#fff" stroke-linecap="round" stroke-linejoin="round" points="94.686 137.686 94.686 131.686 90.686 134.686 94.686 137.686"/><path fill="none" stroke="#fff" stroke-linecap="round" stroke-miterlimit="10" d="M94.686,134.686a10,10,0,0,1,6.1,17.922"/></g></g></g><path fill="url(#linear-gradient-10)" d="M107.172,160.485a12,12,0,0,1-16.971,0L78.887,149.172a12,12,0,0,1,0-16.971l7.314-7.314h0L74.887,136.2a12,12,0,0,0,0,16.971L86.2,164.485a12,12,0,0,0,16.971,0l11.314-11.314h0Z" opacity=".3" style="mix-blend-mode:multiply"/></g><g><g><rect width="40" height="40" x="31.384" y="128" fill="#ea4335" rx="2" ry="2"/><rect width="40" height="40" x="31.384" y="128" fill="url(#linear-gradient-7)" opacity=".5" rx="2" ry="2" style="mix-blend-mode:color-burn"/><path fill="url(#linear-gradient-8)" d="M37.384,164a2,2,0,0,1-2-2V128h-2a2,2,0,0,0-2,2v36a2,2,0,0,0,2,2h36a2,2,0,0,0,2-2v-2Z" opacity=".3" style="mix-blend-mode:multiply"/></g><g><path fill="none" stroke="#fff" stroke-miterlimit="10" d="M45.191,152.551H44.82a5.408,5.408,0,0,1-4.469-2.373l-2.964-4.357a5.408,5.408,0,0,0-4.469-2.373H31.384"/><path fill="none" stroke="#fff" stroke-miterlimit="10" d="M57.578,143.449h-.113A5.408,5.408,0,0,0,53,145.822l-2.964,4.357a5.408,5.408,0,0,1-4.469,2.373h-.371"/><path fill="none" stroke="#fff" stroke-miterlimit="10" d="M57.578,143.449h.113a5.408,5.408,0,0,1,4.469,2.373l2.964,4.357a5.408,5.408,0,0,0,4.469,2.373h1.79"/></g></g></g><rect width="360" height="204" fill="none"/><g><line x1="296" x2="296" y1="88" y2="82" fill="none" stroke="#dadce0" stroke-linecap="round" stroke-miterlimit="10" stroke-width="2"/><line x1="303.071" x2="307.314" y1="90.929" y2="86.686" fill="none" stroke="#dadce0" stroke-linecap="round" stroke-miterlimit="10" stroke-width="2"/><line x1="306" x2="312" y1="98" y2="98" fill="none" stroke="#dadce0" stroke-linecap="round" stroke-miterlimit="10" stroke-width="2"/></g></g></g></g></svg>