<svg xmlns="http://www.w3.org/2000/svg" xmlns:se="http://svg-edit.googlecode.com" xmlns:xlink="http://www.w3.org/1999/xlink" xmlns:dc="http://purl.org/dc/elements/1.1/" xmlns:cc="http://creativecommons.org/ns#" xmlns:rdf="http://www.w3.org/1999/02/22-rdf-syntax-ns#" xmlns:inkscape="http://www.inkscape.org/namespaces/inkscape" width="777" height="480" style="">                                    <title>my vector image</title>                                    <!-- Created with Vector Paint - http://www.vectorpaint.yaks.com/ https://chrome.google.com/webstore/detail/hnbpdiengicdefcjecjbnjnoifekhgdo -->                                    <rect id="backgroundrect" width="100%" height="100%" x="0" y="0" fill="#FFFFFF" stroke="none"/>                                <g class="currentLayer" style=""><title>Layer 1</title><rect fill="#ffc429" stroke="#ffc429" stroke-width="2" stroke-linejoin="round" stroke-dashoffset="" fill-rule="nonzero" id="svg_2" x="0.9999998807907104" y="-1.8461302518844604" width="775.6988525390625" height="480.8461608886719" style="color: rgb(255, 196, 41);" class="" stroke-opacity="1"/><path fill="#000000" fill-opacity="1" stroke="#222222" stroke-opacity="1" stroke-width="2" stroke-dasharray="none" stroke-linejoin="round" stroke-linecap="butt" stroke-dashoffset="" fill-rule="nonzero" opacity="1" marker-start="" marker-mid="" marker-end="" id="svg_1" d="M697.42004,479.00002C737.14094,376.88874 594.25208,497.16161 408.16977,419.21042L364.96054,396.91488C106.13401,225.81054 312.81755,98.69376 171.68001,128.56226L91.17948,143.83354C21.81861,163.15143 63.10172,81.24049 61.79114,69.44531C61.13585,24.88577 0.8494,34.05979 1.40507,33.74524C0.8494,34.05979 0.8494,477.68944 1.50469,477.68944" style="color: rgb(0, 0, 0);" class="" filter=""/></g><defs><marker inkscape:stockid="DistanceStart" orient="auto" refY="0" refX="0" id="DistanceStart" overflow="visible">
            <g id="g2300" style="fill: rgb(34, 34, 34); stroke: rgb(34, 34, 34); stroke-dasharray: none;">
                <path id="path2306" d="M0 0h2" stroke="#fff" stroke-width="1.15" stroke-linecap="square" fill="none"/>
                <path id="path2302" d="M0 0l13 4-4-4 4-4-13 4z" fill="#000" fill-rule="evenodd" stroke="none"/>
                <path id="path2304" d="M0-4v44" stroke="#000" stroke-width="1" stroke-linecap="square" fill="none"/>
            </g>
        </marker></defs></svg>