<svg xmlns="http://www.w3.org/2000/svg" xmlns:se="http://svg-edit.googlecode.com" xmlns:xlink="http://www.w3.org/1999/xlink" width="777" height="480"><title>my vector image</title><rect id="backgroundrect" width="100%" height="100%" x="0" y="0" fill="#FFF" stroke="none"/><g class="currentLayer"><title>Layer 1</title><rect style="color:#ffc429" id="svg_2" width="775.699" height="480.846" x="1" y="-1.846" fill="#ffc429" fill-rule="nonzero" stroke="#ffc429" stroke-linejoin="round" stroke-opacity="1" stroke-width="2"/><path id="svg_1" fill="#000" fill-opacity="1" fill-rule="nonzero" stroke="#222" stroke-dasharray="none" stroke-linecap="butt" stroke-linejoin="round" stroke-opacity="1" stroke-width="2" d="M697.42004,479.00002C737.14094,376.88874 594.25208,497.16161 408.16977,419.21042L364.96054,396.91488C106.13401,225.81054 312.81755,98.69376 171.68001,128.56226L91.17948,143.83354C21.81861,163.15143 63.10172,81.24049 61.79114,69.44531C61.13585,24.88577 0.8494,34.05979 1.40507,33.74524C0.8494,34.05979 0.8494,477.68944 1.50469,477.68944" opacity="1" style="color:#000"/></g><defs><marker id="DistanceStart" orient="auto" overflow="visible" refX="0" refY="0"><g id="g2300" style="fill:#222;stroke:#222;stroke-dasharray:none"><path id="path2306" fill="none" stroke="#fff" stroke-linecap="square" stroke-width="1.15" d="M0 0h2"/><path id="path2302" fill="#000" fill-rule="evenodd" stroke="none" d="M0 0l13 4-4-4 4-4-13 4z"/><path id="path2304" fill="none" stroke="#000" stroke-linecap="square" stroke-width="1" d="M0-4v44"/></g></marker></defs></svg>